<svg xmlns="http://www.w3.org/2000/svg" width="672" height="663" viewBox="0 0 672 663">
  <metadata><?xpacket begin="﻿" id="W5M0MpCehiHzreSzNTczkc9d"?>
<x:xmpmeta xmlns:x="adobe:ns:meta/" x:xmptk="Adobe XMP Core 5.6-c138 79.159824, 2016/09/14-01:09:01        ">
   <rdf:RDF xmlns:rdf="http://www.w3.org/1999/02/22-rdf-syntax-ns#">
      <rdf:Description rdf:about=""/>
   </rdf:RDF>
</x:xmpmeta>
                                                                                                    
                                                                                                    
                                                                                                    
                                                                                                    
                                                                                                    
                                                                                                    
                                                                                                    
                                                                                                    
                                                                                                    
                                                                                                    
                                                                                                    
                                                                                                    
                                                                                                    
                                                                                                    
                                                                                                    
                                                                                                    
                                                                                                    
                                                                                                    
                                                                                                    
                                                                                                    
                           
<?xpacket end="w"?></metadata>
<defs>
    <style>
      .cls-1 {
        stroke: #222;
        stroke-linejoin: round;
        stroke-width: 3px;
      }

      .cls-2 {
        fill: #b3b3b3;
      }

      .cls-2, .cls-4 {
        fill-rule: evenodd;
      }

      .cls-3 {
        fill: #222;
      }

      .cls-4 {
        fill: #e99e33;
      }
    </style>
  </defs>
  <g class="cls-1">
    <path id="Rounded_Rectangle_2_copy_8" data-name="Rounded Rectangle 2 copy 8" class="cls-2" d="M213,73h13.494a5,5,0,0,1,5,5V180a5,5,0,0,1-5,5H213a5,5,0,0,1-5-5V78A5,5,0,0,1,213,73Zm45.813,0h13.494a5,5,0,0,1,5,5V180a5,5,0,0,1-5,5H258.813a5,5,0,0,1-5-5V78A5,5,0,0,1,258.813,73Zm45.813,0H318.12a5,5,0,0,1,5,5V180a5,5,0,0,1-5,5H304.626a5,5,0,0,1-5-5V78A5,5,0,0,1,304.626,73Zm45.814,0h13.494a5,5,0,0,1,5,5V180a5,5,0,0,1-5,5H350.44a5,5,0,0,1-5-5V78A5,5,0,0,1,350.44,73Zm45.813,0h13.494a5,5,0,0,1,5,5V180a5,5,0,0,1-5,5H396.253a5,5,0,0,1-5-5V78A5,5,0,0,1,396.253,73Zm45.813,0H455.56a5,5,0,0,1,5,5V180a5,5,0,0,1-5,5H442.066a5,5,0,0,1-5-5V78A5,5,0,0,1,442.066,73Zm45.813,0h13.494a5,5,0,0,1,5,5V180a5,5,0,0,1-5,5H487.879a5,5,0,0,1-5-5V78A5,5,0,0,1,487.879,73Zm45.814,0h13.494a5,5,0,0,1,5,5V180a5,5,0,0,1-5,5H533.693a5,5,0,0,1-5-5V78A5,5,0,0,1,533.693,73Zm45.813,0H593a5,5,0,0,1,5,5V180a5,5,0,0,1-5,5H579.506a5,5,0,0,1-5-5V78A5,5,0,0,1,579.506,73Z" transform="translate(-66 -73)"/>
    <path id="Rounded_Rectangle_2_copy_11" data-name="Rounded Rectangle 2 copy 11" class="cls-2" d="M213,624h13.494a5,5,0,0,1,5,5V731a5,5,0,0,1-5,5H213a5,5,0,0,1-5-5V629A5,5,0,0,1,213,624Zm45.813,0h13.494a5,5,0,0,1,5,5V731a5,5,0,0,1-5,5H258.813a5,5,0,0,1-5-5V629A5,5,0,0,1,258.813,624Zm45.813,0H318.12a5,5,0,0,1,5,5V731a5,5,0,0,1-5,5H304.626a5,5,0,0,1-5-5V629A5,5,0,0,1,304.626,624Zm45.814,0h13.494a5,5,0,0,1,5,5V731a5,5,0,0,1-5,5H350.44a5,5,0,0,1-5-5V629A5,5,0,0,1,350.44,624Zm45.813,0h13.494a5,5,0,0,1,5,5V731a5,5,0,0,1-5,5H396.253a5,5,0,0,1-5-5V629A5,5,0,0,1,396.253,624Zm45.813,0H455.56a5,5,0,0,1,5,5V731a5,5,0,0,1-5,5H442.066a5,5,0,0,1-5-5V629A5,5,0,0,1,442.066,624Zm45.813,0h13.494a5,5,0,0,1,5,5V731a5,5,0,0,1-5,5H487.879a5,5,0,0,1-5-5V629A5,5,0,0,1,487.879,624Zm45.814,0h13.494a5,5,0,0,1,5,5V731a5,5,0,0,1-5,5H533.693a5,5,0,0,1-5-5V629A5,5,0,0,1,533.693,624Zm45.813,0H593a5,5,0,0,1,5,5V731a5,5,0,0,1-5,5H579.506a5,5,0,0,1-5-5V629A5,5,0,0,1,579.506,624Z" transform="translate(-66 -73)"/>
    <path id="Rounded_Rectangle_2_copy_9" data-name="Rounded Rectangle 2 copy 9" class="cls-2" d="M631,205H733a5,5,0,0,1,5,5v13.5a5,5,0,0,1-5,5H631a5,5,0,0,1-5-5V210A5,5,0,0,1,631,205Zm0,45.812H733a5,5,0,0,1,5,5v13.5a5,5,0,0,1-5,5H631a5,5,0,0,1-5-5v-13.5A5,5,0,0,1,631,250.812Zm0,45.813H733a5,5,0,0,1,5,5v13.5a5,5,0,0,1-5,5H631a5,5,0,0,1-5-5v-13.5A5,5,0,0,1,631,296.625Zm0,45.812H733a5,5,0,0,1,5,5v13.5a5,5,0,0,1-5,5H631a5,5,0,0,1-5-5v-13.5A5,5,0,0,1,631,342.437Zm0,45.813H733a5,5,0,0,1,5,5v13.5a5,5,0,0,1-5,5H631a5,5,0,0,1-5-5v-13.5A5,5,0,0,1,631,388.25Zm0,45.812H733a5,5,0,0,1,5,5v13.5a5,5,0,0,1-5,5H631a5,5,0,0,1-5-5v-13.5A5,5,0,0,1,631,434.062Zm0,45.813H733a5,5,0,0,1,5,5v13.5a5,5,0,0,1-5,5H631a5,5,0,0,1-5-5v-13.5A5,5,0,0,1,631,479.875Zm0,45.812H733a5,5,0,0,1,5,5v13.5a5,5,0,0,1-5,5H631a5,5,0,0,1-5-5v-13.5A5,5,0,0,1,631,525.687Zm0,45.813H733a5,5,0,0,1,5,5V590a5,5,0,0,1-5,5H631a5,5,0,0,1-5-5V576.5A5,5,0,0,1,631,571.5Z" transform="translate(-66 -73)"/>
    <path id="Rounded_Rectangle_2_copy_10" data-name="Rounded Rectangle 2 copy 10" class="cls-2" d="M71,205H173a5,5,0,0,1,5,5v13.5a5,5,0,0,1-5,5H71a5,5,0,0,1-5-5V210A5,5,0,0,1,71,205Zm0,45.812H173a5,5,0,0,1,5,5v13.5a5,5,0,0,1-5,5H71a5,5,0,0,1-5-5v-13.5A5,5,0,0,1,71,250.812Zm0,45.813H173a5,5,0,0,1,5,5v13.5a5,5,0,0,1-5,5H71a5,5,0,0,1-5-5v-13.5A5,5,0,0,1,71,296.625Zm0,45.812H173a5,5,0,0,1,5,5v13.5a5,5,0,0,1-5,5H71a5,5,0,0,1-5-5v-13.5A5,5,0,0,1,71,342.437Zm0,45.813H173a5,5,0,0,1,5,5v13.5a5,5,0,0,1-5,5H71a5,5,0,0,1-5-5v-13.5A5,5,0,0,1,71,388.25Zm0,45.812H173a5,5,0,0,1,5,5v13.5a5,5,0,0,1-5,5H71a5,5,0,0,1-5-5v-13.5A5,5,0,0,1,71,434.062Zm0,45.813H173a5,5,0,0,1,5,5v13.5a5,5,0,0,1-5,5H71a5,5,0,0,1-5-5v-13.5A5,5,0,0,1,71,479.875Zm0,45.812H173a5,5,0,0,1,5,5v13.5a5,5,0,0,1-5,5H71a5,5,0,0,1-5-5v-13.5A5,5,0,0,1,71,525.687ZM71,571.5H173a5,5,0,0,1,5,5V590a5,5,0,0,1-5,5H71a5,5,0,0,1-5-5V576.5A5,5,0,0,1,71,571.5Z" transform="translate(-66 -73)"/>
  </g>
  <rect id="Rounded_Rectangle_1" data-name="Rounded Rectangle 1" class="cls-3" x="71" y="64" width="530" height="530" rx="50" ry="50"/>
  <path id="CM" class="cls-4" d="M359.248,437.993H339.375v54.651h-49.4V305.41h49.4v49.967h19.873v-51.67a15.116,15.116,0,0,0-4.543-11.356,15.858,15.858,0,0,0-11.5-4.4H286a15.08,15.08,0,0,0-15.757,15.757V494.348A15.079,15.079,0,0,0,286,510.1h57.206a15.853,15.853,0,0,0,11.5-4.4,15.11,15.11,0,0,0,4.543-11.356V437.993ZM532.684,287.95H514.372L478.317,432.457a52.722,52.722,0,0,0-.568,6.388,51.168,51.168,0,0,0-.568-6.388L441.125,287.95H422.814V510.1h18.595V369.43q0-2.838-1.987-17.46l36.34,137.268h3.974l36.34-137.268q-1.989,14.479-1.987,17.46V510.1h18.595V287.95Z" transform="translate(-66 -73)"/>
</svg>
